<?xml version="1.0" encoding="UTF-8" standalone="no"?>
<!-- Created with Inkscape (http://www.inkscape.org/) -->

<svg
   width="512"
   height="512"
   viewBox="0 0 512 512"
   version="1.1"
   id="svg5"
   xml:space="preserve"
   inkscape:version="1.2.2 (732a01da63, 2022-12-09)"
   sodipodi:docname="Vetor-Linkedin.svg"
   xmlns:inkscape="http://www.inkscape.org/namespaces/inkscape"
   xmlns:sodipodi="http://sodipodi.sourceforge.net/DTD/sodipodi-0.dtd"
   xmlns="http://www.w3.org/2000/svg"
   xmlns:svg="http://www.w3.org/2000/svg"><sodipodi:namedview
     id="namedview7"
     pagecolor="#ffffff"
     bordercolor="#999999"
     borderopacity="1"
     inkscape:showpageshadow="0"
     inkscape:pageopacity="0"
     inkscape:pagecheckerboard="0"
     inkscape:deskcolor="#d1d1d1"
     inkscape:document-units="px"
     showgrid="false"
     inkscape:zoom="1.4142136"
     inkscape:cx="142.83557"
     inkscape:cy="223.09219"
     inkscape:window-width="1920"
     inkscape:window-height="991"
     inkscape:window-x="-9"
     inkscape:window-y="-9"
     inkscape:window-maximized="1"
     inkscape:current-layer="layer1" /><defs
     id="defs2"><inkscape:path-effect
       effect="powerclip"
       id="path-effect1403"
       is_visible="true"
       lpeversion="1"
       inverse="true"
       flatten="false"
       hide_clip="false"
       message="Usar a regra de preenchimento par ou ímpar na caixa de diálogo &lt;b&gt;preenchimento e contorno&lt;/b&gt; se nenhum resultado nivelar após converter o clipe em caminhos." /><clipPath
       clipPathUnits="userSpaceOnUse"
       id="clipPath1389"><g
         id="g1401"
         style="display:none"><circle
           style="fill:#7cce00;fill-opacity:0.339623;stroke-width:1.10449"
           id="circle1391"
           cx="171.70586"
           cy="163.08191"
           r="26.034826"
           d="m 197.74068,163.08191 a 26.034826,26.034826 0 0 1 -26.03482,26.03483 26.034826,26.034826 0 0 1 -26.03483,-26.03483 26.034826,26.034826 0 0 1 26.03483,-26.03483 26.034826,26.034826 0 0 1 26.03482,26.03483 z" /><rect
           style="fill:#7cce00;fill-opacity:0.339623;stroke-width:5.8227"
           id="rect1393"
           width="40.528656"
           height="127.68158"
           x="151.52238"
           y="199.60199"
           ry="6.885572"
           d="m 158.40796,199.60199 h 26.75751 c 3.81461,0 6.88557,3.07096 6.88557,6.88557 V 320.398 c 0,3.8146 -3.07096,6.88557 -6.88557,6.88557 h -26.75751 c -3.81461,0 -6.88558,-3.07097 -6.88558,-6.88557 V 206.48756 c 0,-3.81461 3.07097,-6.88557 6.88558,-6.88557 z" /><rect
           style="fill:#7cce00;fill-opacity:0.339623;stroke-width:6.36236"
           id="rect1395"
           width="40.636814"
           height="127.65343"
           x="209.55223"
           y="199.60199"
           ry="6.7248855"
           d="m 216.27712,199.60199 h 27.18704 c 3.72559,0 6.72488,2.9993 6.72488,6.72489 v 114.20365 c 0,3.72559 -2.99929,6.72489 -6.72488,6.72489 h -27.18704 c -3.72559,0 -6.72489,-2.9993 -6.72489,-6.72489 V 206.32688 c 0,-3.72559 2.9993,-6.72489 6.72489,-6.72489 z" /><path
           id="path1397"
           style="fill:#7cce00;fill-opacity:0.339623;stroke-width:5.21428"
           d="m 293.40411,267.67723 c 0,0 -0.0188,-5.00135 -0.32432,-9.96733 -0.61194,-9.94817 -3.8132,-24.94187 -20.39097,-25.15386 C 253.25227,232.30749 250.18904,256 250.18904,256 v -39.81662 c 0,-1.956 4.70802,-8.84468 13.11676,-13.26255 6.47638,-3.40263 14.95343,-5.2034 26.36351,-5.25261 13.04827,-0.0563 23.56767,4.6723 31.38459,12.66214 2.60892,2.66662 6.85945,7.58193 10.03328,20.19116 1.0058,3.99591 2.00017,8.34159 2.50352,12.86649 1.12933,10.15205 0.88216,24.28322 0.88216,24.28322 z"
           sodipodi:nodetypes="ssscsssssscs" /><path
           id="path1399"
           style="fill:#7cce00;fill-opacity:0.339623;stroke-width:1.52594"
           d="m 293.40411,267.67723 41.06875,-0.006 10e-6,6.23244 v 46.94568 c 0,3.44968 -2.83833,6.22688 -6.36397,6.22688 h -28.52207 c -3.52563,0 -6.36396,-2.7772 -6.36396,-6.22688 v -46.94568 z"
           sodipodi:nodetypes="cccsssscc" /></g><path
         id="lpe_path-effect1403"
         class="powerclip"
         d="M 111.53732,105.48756 H 364.80101 V 358.75124 H 111.53732 Z m 86.20336,57.59435 a 26.034826,26.034826 0 0 0 -26.03482,-26.03483 26.034826,26.034826 0 0 0 -26.03483,26.03483 26.034826,26.034826 0 0 0 26.03483,26.03483 26.034826,26.034826 0 0 0 26.03482,-26.03483 z m -39.33272,36.52008 c -3.81461,0 -6.88558,3.07096 -6.88558,6.88557 V 320.398 c 0,3.8146 3.07097,6.88557 6.88558,6.88557 h 26.75751 c 3.81461,0 6.88557,-3.07097 6.88557,-6.88557 V 206.48756 c 0,-3.81461 -3.07096,-6.88557 -6.88557,-6.88557 z m 57.86916,0 c -3.72559,0 -6.72489,2.9993 -6.72489,6.72489 v 114.20365 c 0,3.72559 2.9993,6.72489 6.72489,6.72489 h 27.18704 c 3.72559,0 6.72488,-2.9993 6.72488,-6.72489 V 206.32688 c 0,-3.72559 -2.99929,-6.72489 -6.72488,-6.72489 z m 77.12699,68.07524 41.06875,-0.006 c 0,0 0.24717,-14.13117 -0.88216,-24.28322 -0.50335,-4.5249 -1.49772,-8.87058 -2.50352,-12.86649 -3.17383,-12.60923 -7.42436,-17.52454 -10.03328,-20.19116 -7.81692,-7.98984 -18.33632,-12.71844 -31.38459,-12.66214 -11.41008,0.0492 -19.88713,1.84998 -26.36351,5.25261 -8.40874,4.41787 -13.11676,11.30655 -13.11676,13.26255 V 256 c 0,0 3.06323,-23.69251 22.49978,-23.44396 16.57777,0.21199 19.77903,15.20569 20.39097,25.15386 0.30552,4.96598 0.32432,9.96733 0.32432,9.96733 z m 0,0 -0.18124,6.22644 v 46.94568 c 0,3.44968 2.83833,6.22688 6.36396,6.22688 h 28.52207 c 3.52564,0 6.36397,-2.7772 6.36397,-6.22688 v -46.94568 l -10e-6,-6.23244 z" /></clipPath><inkscape:path-effect
       effect="powerclip"
       id="path-effect428"
       is_visible="true"
       lpeversion="1"
       inverse="true"
       flatten="false"
       hide_clip="false"
       message="Usar a regra de preenchimento par ou ímpar na caixa de diálogo &lt;b&gt;preenchimento e contorno&lt;/b&gt; se nenhum resultado nivelar após converter o clipe em caminhos." /><inkscape:path-effect
       effect="powerclip"
       id="path-effect352"
       is_visible="true"
       lpeversion="1"
       inverse="true"
       flatten="false"
       hide_clip="false"
       message="Usar a regra de preenchimento par ou ímpar na caixa de diálogo &lt;b&gt;preenchimento e contorno&lt;/b&gt; se nenhum resultado nivelar após converter o clipe em caminhos." /><clipPath
       clipPathUnits="userSpaceOnUse"
       id="clipPath348"><rect
         style="display:block;fill:#ffffff;fill-opacity:1;stroke-width:0.824952"
         id="rect350"
         width="140.24178"
         height="140.24178"
         x="14.866627"
         y="14.832479"
         ry="32.507172" /></clipPath><clipPath
       clipPathUnits="userSpaceOnUse"
       id="clipPath424"><circle
         style="display:none;fill:#ffffff;fill-opacity:1;stroke-width:1.12815"
         id="circle426"
         cx="85.099953"
         cy="84.953239"
         r="28.8265" /></clipPath></defs><g
     inkscape:label="Camada 1"
     inkscape:groupmode="layer"
     id="layer1"><path
       style="fill:#7cce00;fill-opacity:1"
       id="rect1288"
       width="243.26369"
       height="243.26369"
       x="116.53732"
       y="110.48756"
       ry="67.296425"
       clip-path="url(#clipPath1389)"
       inkscape:path-effect="#path-effect1403"
       d="m 183.83375,110.48756 h 108.67084 c 37.28221,0 67.29642,30.0142 67.29642,67.29642 v 108.67084 c 0,37.28222 -30.01421,67.29642 -67.29642,67.29642 H 183.83375 c -37.28222,0 -67.29643,-30.0142 -67.29643,-67.29642 V 177.78398 c 0,-37.28222 30.01421,-67.29642 67.29643,-67.29642 z"
       sodipodi:type="rect"
       transform="matrix(2.104712,0,0,2.104712,-245.2775,-232.54448)" /></g></svg>
