<?xml version="1.0" encoding="UTF-8" standalone="no"?>
<!-- Created with Inkscape (http://www.inkscape.org/) -->

<svg
   width="512"
   height="512"
   viewBox="0 0 512 512"
   version="1.1"
   id="svg5"
   xml:space="preserve"
   inkscape:version="1.2.2 (732a01da63, 2022-12-09)"
   sodipodi:docname="Vetor - Lixeia.svg"
   xmlns:inkscape="http://www.inkscape.org/namespaces/inkscape"
   xmlns:sodipodi="http://sodipodi.sourceforge.net/DTD/sodipodi-0.dtd"
   xmlns="http://www.w3.org/2000/svg"
   xmlns:svg="http://www.w3.org/2000/svg"><sodipodi:namedview
     id="namedview7"
     pagecolor="#ffffff"
     bordercolor="#999999"
     borderopacity="1"
     inkscape:showpageshadow="0"
     inkscape:pageopacity="0"
     inkscape:pagecheckerboard="0"
     inkscape:deskcolor="#d1d1d1"
     inkscape:document-units="px"
     showgrid="false"
     inkscape:zoom="1.1103786"
     inkscape:cx="522.34435"
     inkscape:cy="281.43553"
     inkscape:window-width="1920"
     inkscape:window-height="991"
     inkscape:window-x="-9"
     inkscape:window-y="-9"
     inkscape:window-maximized="1"
     inkscape:current-layer="layer1" /><defs
     id="defs2"><inkscape:path-effect
       effect="powermask"
       id="path-effect13271"
       is_visible="true"
       lpeversion="1"
       uri="#mask-powermask-path-effect13271"
       invert="false"
       hide_mask="false"
       background="true"
       background_color="#ffffffff" /><inkscape:path-effect
       effect="powerclip"
       id="path-effect4186"
       is_visible="true"
       lpeversion="1"
       inverse="true"
       flatten="false"
       hide_clip="false"
       message="Usar a regra de preenchimento par ou ímpar na caixa de diálogo &lt;b&gt;preenchimento e contorno&lt;/b&gt; se nenhum resultado nivelar após converter o clipe em caminhos." /><inkscape:path-effect
       effect="powerclip"
       id="path-effect1681"
       is_visible="true"
       lpeversion="1"
       inverse="true"
       flatten="false"
       hide_clip="false"
       message="Usar a regra de preenchimento par ou ímpar na caixa de diálogo &lt;b&gt;preenchimento e contorno&lt;/b&gt; se nenhum resultado nivelar após converter o clipe em caminhos." /><inkscape:path-effect
       effect="powerclip"
       id="path-effect1677"
       is_visible="true"
       lpeversion="1"
       inverse="true"
       flatten="false"
       hide_clip="false"
       message="Usar a regra de preenchimento par ou ímpar na caixa de diálogo &lt;b&gt;preenchimento e contorno&lt;/b&gt; se nenhum resultado nivelar após converter o clipe em caminhos." /><clipPath
       clipPathUnits="userSpaceOnUse"
       id="clipPath893"><rect
         style="fill:#ff0000;fill-opacity:0.572327;stroke-width:2.445"
         id="rect895"
         width="2374.1121"
         height="2131.4924"
         x="12314.998"
         y="-2542.7161"
         ry="24.046482"
         transform="scale(1,-1)" /></clipPath><clipPath
       clipPathUnits="userSpaceOnUse"
       id="clipPath1599"><g
         transform="matrix(0.13333333,0,0,-0.13333333,-3916.809,2306.2017)"
         id="g1667"><path
           id="path1601"
           style="fill:#d1d3d4;fill-opacity:1;fill-rule:nonzero;stroke:none"
           d="m 6047.76,14048.6 v -871.2 c 2263.4,0 4104.84,-1840.9 4104.84,-4104.9 h 871.3 c 0,2748.8 -2227.94,4976.1 -4976.14,4976.1" /><path
           id="path1603"
           style="fill:#d1d3d4;fill-opacity:1;fill-rule:nonzero;stroke:none"
           d="M 6047.76,11223.3 V 10352 c 705.1,0 1278.88,-573.8 1278.88,-1279.5 h 871.26 c 0,1188 -962.74,2150.8 -2150.14,2150.8" /><path
           id="path1605"
           style="fill:#d1d3d4;fill-opacity:1;fill-rule:nonzero;stroke:none"
           d="m 6744.15,9072.5 h -696.39 v 697 c 384.6,0 696.39,-311.8 696.39,-697" /><path
           id="path1607"
           style="fill:#d1d3d4;fill-opacity:1;fill-rule:nonzero;stroke:none"
           d="m 6047.76,12707.5 v -871.2 c 1523.46,0 2763.13,-1239.7 2763.13,-2763.8 h 871.26 c 0,2007.6 -1627.39,3635 -3634.39,3635" /><path
           id="path1609"
           style="fill:#d1d3d4;fill-opacity:1;fill-rule:nonzero;stroke:none"
           d="m 6005.81,6636.6 v 0 c 0,-223.5 169.1,-411.9 391.62,-433.1 1951.53,-185.5 3509.21,-1742.7 3694.77,-3694.7 21.1,-222.5 209.5,-391.6 433,-391.6 v 0 c 258.1,0 458.5,222.9 433.9,479.8 -226.2,2365.7 -2108.27,4247.3 -4473.51,4473.5 -256.83,24.5 -479.78,-175.9 -479.78,-433.9" /><path
           id="path1611"
           style="fill:#d1d3d4;fill-opacity:1;fill-rule:nonzero;stroke:none"
           d="m 6005.81,3775.8 v 0 c 0,-197.6 133.02,-370.6 324.18,-420.7 445.16,-116.8 796.42,-468.2 913.11,-913.6 50.09,-191.3 223.13,-324.3 420.8,-324.3 v 0 c 283.77,0 494.45,267.6 423.14,542.2 -195.27,752.1 -787.18,1344.2 -1538.95,1539.6 -274.66,71.3 -542.28,-139.4 -542.28,-423.2" /><path
           id="path1613"
           style="fill:#d1d3d4;fill-opacity:1;fill-rule:nonzero;stroke:none"
           d="m 6293.96,2033.6 v 0 c -205.27,0 -371.68,166.4 -371.68,371.7 v 0.1 c 0,324.4 391.9,498.8 624.64,272.9 6.8,-6.6 13.5,-13.4 20.09,-20.2 225.43,-233.1 51.22,-624.5 -273.05,-624.5" /><path
           id="path1615"
           style="fill:#d1d3d4;fill-opacity:1;fill-rule:nonzero;stroke:none"
           d="m 6005.81,5286.8 v 0 c 0,-217 159.47,-401.9 374.44,-431.1 1224.6,-166.7 2196.81,-1139 2363.42,-2364 29.24,-215 214.15,-374.5 431.11,-374.5 v 0 c 261.12,0 467.7,228.5 433.03,487.3 -216.73,1617.7 -1497.4,2898.5 -3114.66,3115.3 -258.82,34.7 -487.34,-171.9 -487.34,-433" /><g
           id="g1633"
           transform="matrix(0.12227456,0,0,0.12227456,54401.523,20684.366)"
           style="fill:#ff0000"><g
             transform="scale(2.70553)"
             id="g1619"
             style="fill:#ff0000"><path
               id="path1617"
               style="fill:#ff0000;fill-opacity:1;fill-rule:nonzero;stroke:none"
               d="m 14460.1,2452.97 v 0 c 0,-82.61 62.5,-152.24 144.8,-160.08 721.3,-68.56 1297,-644.12 1365.6,-1365.605 7.8,-82.239 77.5,-144.741 160.1,-144.741 v 0 c 95.3,0 169.4,82.388 160.3,177.341 -83.6,874.395 -779.2,1569.855 -1653.4,1653.465 -95,9.05 -177.4,-65.02 -177.4,-160.38" /></g><g
             transform="scale(2.5322)"
             id="g1623"
             style="fill:#ff0000"><path
               id="path1621"
               style="fill:#ff0000;fill-opacity:1;fill-rule:nonzero;stroke:none"
               d="m 15449.9,1491.11 v 0 c 0,-78.03 52.6,-146.35 128.1,-166.14 175.8,-46.12 314.5,-184.9 360.6,-360.79 19.8,-75.547 88.1,-128.07 166.2,-128.07 v 0 c 112,0 195.2,105.679 167,214.12 -77.1,297.02 -310.8,530.84 -607.7,608.01 -108.5,28.16 -214.2,-55.05 -214.2,-167.13" /></g><g
             transform="scale(2.4484)"
             id="g1627"
             style="fill:#ff0000"><path
               id="path1625"
               style="fill:#ff0000;fill-opacity:1;fill-rule:nonzero;stroke:none"
               d="m 16096.4,830.582 v 0 c -83.8,0 -151.8,67.962 -151.8,151.813 v 0.042 c 0,132.493 160.1,203.723 255.1,111.463 2.8,-2.7 5.5,-5.48 8.2,-8.25 92.1,-95.209 21,-255.068 -111.5,-255.068" /></g><g
             transform="scale(2.62326)"
             id="g1631"
             style="fill:#ff0000"><path
               id="path1629"
               style="fill:#ff0000;fill-opacity:1;fill-rule:nonzero;stroke:none"
               d="m 14913.7,2015.36 v 0 c 0,-82.72 60.8,-153.21 142.7,-164.34 466.8,-63.55 837.4,-434.19 900.9,-901.171 11.2,-81.959 81.7,-142.761 164.4,-142.761 v 0 c 99.5,0 178.3,87.107 165.1,185.761 -82.6,616.681 -570.8,1104.921 -1187.4,1187.571 -98.6,13.23 -185.7,-65.53 -185.7,-165.06" /></g></g><g
           transform="scale(1.71573)"
           id="g1637"><path
             id="path1635"
             style="fill:#d1d3d4;fill-opacity:1;fill-rule:nonzero;stroke:none"
             d="m 4484.46,16300 c -800.88,0 -1525.96,-324.6 -2050.81,-849.5 l 359.82,-359.8 c 433.08,433.1 1031.57,701.5 1690.99,701.5 659.42,0 1257.91,-268.4 1691,-701.5 l 359.78,359.8 c -524.85,524.9 -1249.9,849.5 -2050.78,849.5" /></g><g
           transform="scale(1.54239)"
           id="g1641"><path
             id="path1639"
             style="fill:#d1d3d4;fill-opacity:1;fill-rule:nonzero;stroke:none"
             d="m 4988.42,16300 c -384.92,0 -733.52,-156.1 -986.1,-408.3 l 399.85,-399.9 c 150.09,150.1 357.48,243.3 586.25,243.3 228.78,0 436.17,-93.2 585.85,-243.7 l 399.86,399.9 c -251.77,252.6 -600.38,408.7 -985.71,408.7" /></g><g
           transform="scale(1.45317)"
           id="g1645"><path
             id="path1643"
             style="fill:#d1d3d4;fill-opacity:1;fill-rule:nonzero;stroke:none"
             d="m 5633.47,16159.5 -338.75,-338.7 -338.75,338.7 c 86.51,87 205.99,140.5 338.75,140.5 132.33,0 252.24,-53.5 338.75,-140.5" /></g><g
           transform="scale(1.63345)"
           id="g1649"><path
             id="path1647"
             style="fill:#d1d3d4;fill-opacity:1;fill-rule:nonzero;stroke:none"
             d="m 4710.34,16300 c -614.53,0 -1170.78,-249.2 -1573.48,-651.9 l 377.56,-377.5 c 306.31,306.3 729.59,496 1195.92,496 466.71,0 889.61,-189.7 1195.55,-496.4 l 377.56,377.5 c -402.33,403.1 -958.57,652.3 -1573.11,652.3" /></g><g
           transform="scale(1.28774)"
           id="g1653"><path
             id="path1651"
             style="fill:#d1d3d4;fill-opacity:1;fill-rule:nonzero;stroke:none"
             d="m 6421.04,16300 c -936.11,0 -1794.48,-332.9 -2463.21,-886.7 -150.83,-124.9 -161.69,-352.6 -23.2,-491.1 l 9.7,-9.7 c 122.43,-122.5 316.62,-128.1 450.15,-17.9 551.2,455 1257.8,728.8 2026.56,728.8 768.75,0 1475.32,-273.8 2026.52,-728.8 133.57,-110.2 327.78,-104.6 450.17,17.9 l 9.7,9.7 c 138.46,138.5 127.67,366.2 -23.22,491.1 -668.69,553.8 -1527.07,886.7 -2463.17,886.7" /></g><g
           transform="scale(1.11441)"
           id="g1657"><path
             id="path1655"
             style="fill:#d1d3d4;fill-opacity:1;fill-rule:nonzero;stroke:none"
             d="m 7419.76,16300 c -357.91,0 -693.13,-97.5 -980.6,-267.4 -217.72,-128.6 -250.54,-431.4 -71.74,-610.3 v 0 c 126.91,-126.9 322.46,-148.8 477.66,-58.7 169.07,98.2 365.41,154.6 574.68,154.6 209.09,0 405.28,-56.3 574.09,-154.5 155.29,-90.3 351.02,-68.5 478.06,58.5 l 0.13,0.1 c 178.7,178.7 146.06,481.3 -71.4,610.1 -287.2,170.1 -622.57,267.6 -980.88,267.6" /></g><g
           transform="scale(1.03039)"
           id="g1661"><path
             id="path1659"
             style="fill:#d1d3d4;fill-opacity:1;fill-rule:nonzero;stroke:none"
             d="m 8280.51,15681.4 v 0 c -141.24,-141.5 -370.25,-141.5 -511.5,0 v 0 c -223.75,224.1 -72.85,614.2 243.54,618.5 4.06,0.1 8.13,0.1 12.22,0.1 4.08,0 8.16,0 12.23,-0.1 316.37,-4.3 467.24,-394.4 243.51,-618.5" /></g><g
           transform="scale(1.20547)"
           id="g1665"><path
             id="path1663"
             style="fill:#d1d3d4;fill-opacity:1;fill-rule:nonzero;stroke:none"
             d="m 6859.3,16300 c -683.61,0 -1314,-227.5 -1819.74,-611 -175.61,-133 -194.75,-389.9 -38.93,-545.7 h 0.01 c 128.13,-128.2 330.72,-141.1 475.07,-31.6 384.83,292 864.53,465.6 1383.59,465.6 519.35,0 998.66,-173.4 1383.04,-465.6 144.37,-109.7 347.12,-96.9 475.37,31.2 v 0 c 155.7,155.8 136.7,412.6 -38.75,545.7 C 8173.44,16072.5 7543,16300 6859.3,16300" /></g></g></clipPath><clipPath
       clipPathUnits="userSpaceOnUse"
       id="clipPath1669"><path
         id="path1671"
         style="display:block;fill:#ff0000;fill-opacity:0.572327;stroke-width:0.62573"
         d="m 178.30331,193.75125 h -17.18372 c 0,-3.60066 3.84671,-6.51957 8.59186,-6.51957 4.74515,0 8.59186,2.91891 8.59186,6.51957 z"
         sodipodi:nodetypes="ccsc" /></clipPath><clipPath
       clipPathUnits="userSpaceOnUse"
       id="clipPath1673"><path
         id="path1675"
         style="display:block;fill:#ff0000;fill-opacity:0.572327;stroke-width:0.62573"
         d="m 178.30331,193.75125 h -17.18372 c 0,-3.60066 3.84671,-6.51957 8.59186,-6.51957 4.74515,0 8.59186,2.91891 8.59186,6.51957 z"
         sodipodi:nodetypes="ccsc" /></clipPath><clipPath
       clipPathUnits="userSpaceOnUse"
       id="clipPath1747"><rect
         style="fill:#ff0000;fill-opacity:0.572327"
         id="rect1749"
         width="146.46767"
         height="171.30348"
         x="3927.2439"
         y="-606.24878"
         ry="9.8349466"
         clip-path="url(#clipPath1599)"
         transform="translate(-3843.3876,801.5255)" /></clipPath><clipPath
       clipPathUnits="userSpaceOnUse"
       id="clipPath3866"><g
         id="g3884"
         transform="matrix(1.0415709,0,0,1.0415709,105.92054,-28.150205)"
         clip-path="none"><g
           transform="matrix(0.04523782,0,0,-0.04523782,-523.98577,350.98055)"
           id="g3870"><path
             id="path3868"
             style="fill:#000000;fill-opacity:1;fill-rule:nonzero;stroke:none"
             d="m 14460.1,2452.97 v 0 c 0,-82.61 62.5,-152.24 144.8,-160.08 721.3,-68.56 1297,-644.12 1365.6,-1365.605 7.8,-82.239 77.5,-144.741 160.1,-144.741 v 0 c 95.3,0 169.4,82.388 160.3,177.341 -83.6,874.395 -779.2,1569.855 -1653.4,1653.465 -95,9.05 -177.4,-65.02 -177.4,-160.38" /></g><g
           transform="matrix(0.04233967,0,0,-0.04233967,-523.98577,350.98055)"
           id="g3874"><path
             id="path3872"
             style="fill:#000000;fill-opacity:1;fill-rule:nonzero;stroke:none"
             d="m 15449.9,1491.11 v 0 c 0,-78.03 52.6,-146.35 128.1,-166.14 175.8,-46.12 314.5,-184.9 360.6,-360.79 19.8,-75.547 88.1,-128.07 166.2,-128.07 v 0 c 112,0 195.2,105.679 167,214.12 -77.1,297.02 -310.8,530.84 -607.7,608.01 -108.5,28.16 -214.2,-55.05 -214.2,-167.13" /></g><g
           transform="matrix(0.04093849,0,0,-0.04093849,-523.98577,350.98055)"
           id="g3878"><path
             id="path3876"
             style="fill:#000000;fill-opacity:1;fill-rule:nonzero;stroke:none"
             d="m 16096.4,830.582 v 0 c -83.8,0 -151.8,67.962 -151.8,151.813 v 0.042 c 0,132.493 160.1,203.723 255.1,111.463 2.8,-2.7 5.5,-5.48 8.2,-8.25 92.1,-95.209 21,-255.068 -111.5,-255.068" /></g><g
           transform="matrix(0.04386224,0,0,-0.04386224,-523.98577,350.98055)"
           id="g3882"><path
             id="path3880"
             style="fill:#000000;fill-opacity:1;fill-rule:nonzero;stroke:none"
             d="m 14913.7,2015.36 v 0 c 0,-82.72 60.8,-153.21 142.7,-164.34 466.8,-63.55 837.4,-434.19 900.9,-901.171 11.2,-81.959 81.7,-142.761 164.4,-142.761 v 0 c 99.5,0 178.3,87.107 165.1,185.761 -82.6,616.681 -570.8,1104.921 -1187.4,1187.571 -98.6,13.23 -185.7,-65.53 -185.7,-165.06" /></g></g></clipPath><clipPath
       clipPathUnits="userSpaceOnUse"
       id="clipPath1673-0"><path
         id="path1675-1"
         style="display:none;fill:#ff0000;fill-opacity:0.572327;stroke-width:0.62573"
         d="m 178.30331,193.75125 h -17.18372 c 0,-3.60066 3.84671,-6.51957 8.59186,-6.51957 4.74515,0 8.59186,2.91891 8.59186,6.51957 z"
         sodipodi:nodetypes="ccsc" /><path
         id="lpe_path-effect1681-5"
         style="fill:#ff0000;fill-opacity:0.572327;stroke-width:0.62573"
         class="powerclip"
         d="M 99.836227,188.75125 H 239.58667 v 34.39801 H 99.836227 Z m 78.467083,5 c 0,-3.60066 -3.84671,-6.51957 -8.59186,-6.51957 -4.74515,0 -8.59186,2.91891 -8.59186,6.51957 z" /></clipPath><inkscape:path-effect
       effect="powerclip"
       id="path-effect1681-4"
       is_visible="true"
       lpeversion="1"
       inverse="true"
       flatten="false"
       hide_clip="false"
       message="Usar a regra de preenchimento par ou ímpar na caixa de diálogo &lt;b&gt;preenchimento e contorno&lt;/b&gt; se nenhum resultado nivelar após converter o clipe em caminhos." /><clipPath
       clipPathUnits="userSpaceOnUse"
       id="clipPath1669-1"><path
         id="path1671-4"
         style="display:none;fill:#ff0000;fill-opacity:0.572327;stroke-width:0.62573"
         d="m 178.30331,193.75125 h -17.18372 c 0,-3.60066 3.84671,-6.51957 8.59186,-6.51957 4.74515,0 8.59186,2.91891 8.59186,6.51957 z"
         sodipodi:nodetypes="ccsc" /><path
         id="lpe_path-effect1677-7"
         style="fill:#ff0000;fill-opacity:0.572327;stroke-width:0.62573"
         class="powerclip"
         d="m 142.30788,171.75125 h 54.80713 v 27 h -54.80713 z m 35.99543,22 c 0,-3.60066 -3.84671,-6.51957 -8.59186,-6.51957 -4.74515,0 -8.59186,2.91891 -8.59186,6.51957 z" /></clipPath><inkscape:path-effect
       effect="powerclip"
       id="path-effect1677-3"
       is_visible="true"
       lpeversion="1"
       inverse="true"
       flatten="false"
       hide_clip="false"
       message="Usar a regra de preenchimento par ou ímpar na caixa de diálogo &lt;b&gt;preenchimento e contorno&lt;/b&gt; se nenhum resultado nivelar após converter o clipe em caminhos." /><clipPath
       clipPathUnits="userSpaceOnUse"
       id="clipath_lpe_path-effect1681-4"><path
         id="path4085"
         style="display:none;fill:#ff0000;fill-opacity:0.572327;stroke-width:0.62573"
         d="m 178.30331,193.75125 h -17.18372 c 0,-3.60066 3.84671,-6.51957 8.59186,-6.51957 4.74515,0 8.59186,2.91891 8.59186,6.51957 z"
         sodipodi:nodetypes="ccsc" /><path
         id="lpe_path-effect1681-4"
         style="fill:#ff0000;fill-opacity:0.572327;stroke-width:0.62573"
         class="powerclip"
         d="M 99.836227,188.75125 H 239.58667 v 34.39801 H 99.836227 Z m 78.467083,5 c 0,-3.60066 -3.84671,-6.51957 -8.59186,-6.51957 -4.74515,0 -8.59186,2.91891 -8.59186,6.51957 z" /></clipPath><clipPath
       clipPathUnits="userSpaceOnUse"
       id="clipath_lpe_path-effect1677-3"><path
         id="path4090"
         style="display:none;fill:#ff0000;fill-opacity:0.572327;stroke-width:0.62573"
         d="m 178.30331,193.75125 h -17.18372 c 0,-3.60066 3.84671,-6.51957 8.59186,-6.51957 4.74515,0 8.59186,2.91891 8.59186,6.51957 z"
         sodipodi:nodetypes="ccsc" /><path
         id="lpe_path-effect1677-3"
         style="fill:#ff0000;fill-opacity:0.572327;stroke-width:0.62573"
         class="powerclip"
         d="m 142.30788,171.75125 h 54.80713 v 27 h -54.80713 z m 35.99543,22 c 0,-3.60066 -3.84671,-6.51957 -8.59186,-6.51957 -4.74515,0 -8.59186,2.91891 -8.59186,6.51957 z" /></clipPath><clipPath
       clipPathUnits="userSpaceOnUse"
       id="clipPath4182"><path
         id="path4184"
         style="display:block;fill:#000000;fill-opacity:1;fill-rule:nonzero;stroke:none;stroke-width:0.0456856"
         d="m 127.29331,265.73402 v 0 c 0,3.77911 2.77768,6.99949 6.51934,7.50798 21.32605,2.90332 38.25714,19.83624 41.15818,41.17056 0.51168,3.74435 3.73252,6.52213 7.51072,6.52213 v 0 c 4.54572,0 8.14575,-3.97954 7.5427,-8.48661 -3.77363,-28.17346 -26.07736,-50.47901 -54.24712,-54.25493 -4.50461,-0.60442 -8.48382,2.99378 -8.48382,7.54087" /></clipPath><clipPath
       clipPathUnits="userSpaceOnUse"
       id="clipPath1673-8"><path
         id="path1675-0"
         style="display:none;fill:#ff0000;fill-opacity:0.572327;stroke-width:0.62573"
         d="m 178.30331,193.75125 h -17.18372 c 0,-3.60066 3.84671,-6.51957 8.59186,-6.51957 4.74515,0 8.59186,2.91891 8.59186,6.51957 z"
         sodipodi:nodetypes="ccsc" /></clipPath><inkscape:path-effect
       effect="powerclip"
       id="path-effect1681-0"
       is_visible="true"
       lpeversion="1"
       inverse="true"
       flatten="false"
       hide_clip="false"
       message="Usar a regra de preenchimento par ou ímpar na caixa de diálogo &lt;b&gt;preenchimento e contorno&lt;/b&gt; se nenhum resultado nivelar após converter o clipe em caminhos." /><clipPath
       clipPathUnits="userSpaceOnUse"
       id="clipPath1669-5"><path
         id="path1671-5"
         style="display:none;fill:#ff0000;fill-opacity:0.572327;stroke-width:0.62573"
         d="m 178.30331,193.75125 h -17.18372 c 0,-3.60066 3.84671,-6.51957 8.59186,-6.51957 4.74515,0 8.59186,2.91891 8.59186,6.51957 z"
         sodipodi:nodetypes="ccsc" /><path
         id="lpe_path-effect1677-1"
         style="fill:#ff0000;fill-opacity:0.572327;stroke-width:0.62573"
         class="powerclip"
         d="m 142.30788,171.75125 h 54.80713 v 27 h -54.80713 z m 35.99543,22 c 0,-3.60066 -3.84671,-6.51957 -8.59186,-6.51957 -4.74515,0 -8.59186,2.91891 -8.59186,6.51957 z" /></clipPath><inkscape:path-effect
       effect="powerclip"
       id="path-effect1677-2"
       is_visible="true"
       lpeversion="1"
       inverse="true"
       flatten="false"
       hide_clip="false"
       message="Usar a regra de preenchimento par ou ímpar na caixa de diálogo &lt;b&gt;preenchimento e contorno&lt;/b&gt; se nenhum resultado nivelar após converter o clipe em caminhos." /><clipPath
       clipPathUnits="userSpaceOnUse"
       id="clipath_lpe_path-effect1681-0"><path
         id="path5067"
         style="display:block;fill:#ff0000;fill-opacity:0.572327;stroke-width:0.62573"
         d="m 178.30331,193.75125 h -17.18372 c 0,-3.60066 3.84671,-6.51957 8.59186,-6.51957 4.74515,0 8.59186,2.91891 8.59186,6.51957 z"
         sodipodi:nodetypes="ccsc" /></clipPath><clipPath
       clipPathUnits="userSpaceOnUse"
       id="clipath_lpe_path-effect1677-2"><path
         id="path5072"
         style="display:block;fill:#ff0000;fill-opacity:0.572327;stroke-width:0.62573"
         d="m 178.30331,193.75125 h -17.18372 c 0,-3.60066 3.84671,-6.51957 8.59186,-6.51957 4.74515,0 8.59186,2.91891 8.59186,6.51957 z"
         sodipodi:nodetypes="ccsc" /></clipPath><clipPath
       clipPathUnits="userSpaceOnUse"
       id="clipPath1673-7"><path
         id="path1675-6"
         style="display:block;fill:#ff0000;fill-opacity:0.572327;stroke-width:0.62573"
         d="m 178.30331,193.75125 h -17.18372 c 0,-3.60066 3.84671,-6.51957 8.59186,-6.51957 4.74515,0 8.59186,2.91891 8.59186,6.51957 z"
         sodipodi:nodetypes="ccsc" /><path
         id="lpe_path-effect1681-3"
         style="fill:#ff0000;fill-opacity:0.572327;stroke-width:0.62573"
         class="powerclip"
         d="M 99.836227,188.75125 H 239.58667 v 34.39801 H 99.836227 Z m 78.467083,5 c 0,-3.60066 -3.84671,-6.51957 -8.59186,-6.51957 -4.74515,0 -8.59186,2.91891 -8.59186,6.51957 z" /></clipPath><inkscape:path-effect
       effect="powerclip"
       id="path-effect1681-9"
       is_visible="true"
       lpeversion="1"
       inverse="true"
       flatten="false"
       hide_clip="false"
       message="Usar a regra de preenchimento par ou ímpar na caixa de diálogo &lt;b&gt;preenchimento e contorno&lt;/b&gt; se nenhum resultado nivelar após converter o clipe em caminhos." /><clipPath
       clipPathUnits="userSpaceOnUse"
       id="clipPath1669-9"><path
         id="path1671-8"
         style="display:none;fill:#ff0000;fill-opacity:0.572327;stroke-width:0.62573"
         d="m 178.30331,193.75125 h -17.18372 c 0,-3.60066 3.84671,-6.51957 8.59186,-6.51957 4.74515,0 8.59186,2.91891 8.59186,6.51957 z"
         sodipodi:nodetypes="ccsc" /><path
         id="lpe_path-effect1677-28"
         style="fill:#ff0000;fill-opacity:0.572327;stroke-width:0.62573"
         class="powerclip"
         d="m 142.30788,171.75125 h 54.80713 v 27 h -54.80713 z m 35.99543,22 c 0,-3.60066 -3.84671,-6.51957 -8.59186,-6.51957 -4.74515,0 -8.59186,2.91891 -8.59186,6.51957 z" /></clipPath><inkscape:path-effect
       effect="powerclip"
       id="path-effect1677-0"
       is_visible="true"
       lpeversion="1"
       inverse="true"
       flatten="false"
       hide_clip="false"
       message="Usar a regra de preenchimento par ou ímpar na caixa de diálogo &lt;b&gt;preenchimento e contorno&lt;/b&gt; se nenhum resultado nivelar após converter o clipe em caminhos." /><clipPath
       clipPathUnits="userSpaceOnUse"
       id="clipath_lpe_path-effect1677-0"><path
         id="path5156"
         style="display:block;fill:#ff0000;fill-opacity:0.572327;stroke-width:0.62573"
         d="m 178.30331,193.75125 h -17.18372 c 0,-3.60066 3.84671,-6.51957 8.59186,-6.51957 4.74515,0 8.59186,2.91891 8.59186,6.51957 z"
         sodipodi:nodetypes="ccsc" /></clipPath><clipPath
       clipPathUnits="userSpaceOnUse"
       id="clipPath6014"><path
         id="path6016"
         style="fill:#ff0000;fill-opacity:1;fill-rule:nonzero;stroke:none"
         d="m 233.89648,333.05078 c -0.2284,0.0357 -0.4573,0.0723 -0.68554,0.10938 -0.48895,0.0543 -0.96229,0.15872 -1.41211,0.35742 -0.0341,0.0141 -0.06,0.0472 -0.0918,0.0664 v 14.86329 c 1.0188,0.15086 2.03962,0.28685 3.05859,0.4375 2.66577,0.40747 5.32006,0.89258 7.95313,1.47461 2.42215,0.54077 4.8181,1.18072 7.17578,1.95507 1.31396,0.44876 2.62802,0.90263 3.89844,1.46485 0.56654,0.28095 1.13024,0.56805 1.69141,0.85937 0.53083,0.29215 1.06835,0.56876 1.59374,0.8711 0.61235,0.36334 1.27027,0.6466 1.91407,0.94921 0.64654,0.30752 1.31896,0.55309 1.98047,0.82618 0.60715,0.23811 1.19141,0.52601 1.76757,0.83007 0.54398,0.33489 1.12306,0.58724 1.69922,0.85743 0.58785,0.27469 1.19149,0.51048 1.77539,0.79687 0.64522,0.31404 1.27888,0.64581 1.88672,1.02735 0.41752,0.29893 0.86931,0.54426 1.29883,0.82421 0.24542,0.18032 0.57862,0.3567 0.92188,0.57032 0.3478,0.18912 0.7088,0.3669 1.06445,0.54882 0.44309,0.19441 0.85024,0.44943 1.26758,0.69141 0.36198,0.22089 0.68663,0.46522 1.04101,0.68164 0.39049,0.2357 0.78519,0.45765 1.16602,0.70899 0.42843,0.3054 0.87126,0.57983 1.28515,0.91015 0.4397,0.38622 0.8623,0.79303 1.31836,1.16016 0.45708,0.34443 0.89752,0.70948 1.31055,1.10547 0.36958,0.39163 0.7753,0.74448 1.15234,1.1289 0.48898,0.50426 0.974,1.0246 1.51954,1.46875 0.61131,0.43592 1.12454,0.97964 1.6582,1.50196 0.60057,0.54215 1.25162,1.02689 1.85742,1.56445 0.7142,0.62616 1.3403,1.3394 1.99805,2.02148 0.47163,0.48873 0.90517,1.01523 1.32812,1.54688 0.43237,0.58178 0.79032,1.21431 1.1875,1.82031 0.3262,0.46013 0.6208,0.94267 0.94141,1.40625 0.36318,0.51075 0.66418,1.06393 0.94141,1.625 0.1632,0.36681 0.35095,0.72204 0.54687,1.07227 0.35741,0.60518 0.68703,1.22275 0.96289,1.86914 0.22554,0.55506 0.41735,1.12309 0.61719,1.6875 0.17328,0.49951 0.37137,0.98831 0.54297,1.48828 0.17069,0.54115 0.31955,1.08891 0.5,1.62695 0.17839,0.50015 0.37582,0.99377 0.53711,1.5 0.0973,0.32523 0.22603,0.63707 0.32421,0.96289 0.15412,0.37842 0.0869,0.81736 0.22657,1.19727 0.14294,0.47472 0.22752,0.96319 0.36523,1.43945 0.16542,0.49128 0.29122,0.99677 0.4668,1.48438 0.24199,0.6094 0.36585,1.25627 0.57226,1.87695 0.21541,0.55329 0.33854,1.13351 0.4668,1.71094 0.0728,0.3289 0.21443,0.63644 0.32031,0.95703 0.003,0.0104 0.007,0.0209 0.01,0.0312 0.0882,0.16682 0.16211,0.341 0.23242,0.51562 0.1704,0.43703 0.19538,0.95793 0.23828,1.38867 0.0364,0.29286 0.11972,0.5576 0.19532,0.83985 0.1524,0.56177 0.20242,1.14394 0.23632,1.72265 0.0127,0.43978 0.0932,0.87299 0.15039,1.3086 0.0667,0.47652 0.086,0.95715 0.10157,1.4375 0.011,0.36832 0.0165,0.737 0.0195,1.10547 0.002,0.40675 0.004,0.81394 0.004,1.2207 0.003,0.33078 -0.007,0.71951 0.01,1.01563 0.0388,0.35788 0.12221,0.70798 0.19141,1.06054 0.11001,0.48593 0.12627,0.98581 0.20117,1.47656 0.0817,0.49091 0.19927,0.97403 0.29297,1.4629 0.0574,0.22142 0.0592,0.45505 0.10742,0.67773 0.008,0.0349 -0.0294,-0.0805 -0.006,-0.10742 0.0187,-0.0215 0.0211,0.0534 0.0312,0.0801 0.0249,0.0659 0.0497,0.13126 0.0742,0.19726 0.2449,0.50299 0.39095,1.0579 0.64844,1.55274 0.23504,0.48599 0.51454,0.94843 0.79296,1.41015 h 16.08008 c 0.22,-0.23884 0.41374,-0.49706 0.58594,-0.76953 v -18.47461 c -0.0713,-0.32036 -0.13622,-0.64206 -0.20508,-0.96289 -0.29434,-1.29159 -0.53462,-2.59243 -0.74219,-3.90039 -0.1781,-1.13308 -0.29753,-2.27322 -0.46289,-3.4082 -0.16475,-1.09129 -0.2876,-2.18922 -0.46093,-3.2793 -0.21374,-1.29861 -0.49507,-2.58576 -0.82618,-3.85937 -0.31418,-1.2012 -0.70704,-2.37881 -1.10351,-3.55469 -0.37696,-1.11281 -0.81118,-2.21271 -1.34961,-3.25781 -0.61718,-1.13654 -1.2854,-2.24615 -1.94336,-3.35938 -0.71647,-1.20086 -1.43063,-2.40232 -2.10938,-3.625 -0.71109,-1.31802 -1.39164,-2.65319 -2.0625,-3.99219 -0.5825,-1.18885 -1.17127,-2.37397 -1.73828,-3.57031 -0.49103,-1.03945 -1.01472,-2.06886 -1.60351,-3.05664 -0.78028,-1.22759 -1.62707,-2.41588 -2.50196,-3.57813 -0.95532,-1.25471 -2.04986,-2.39858 -3.18164,-3.49414 -1.41333,-1.37484 -2.89022,-2.67571 -4.42382,-3.91406 -1.48874,-1.17288 -2.95816,-2.37025 -4.51172,-3.45703 -1.48724,-0.99634 -2.93682,-2.05137 -4.47266,-2.97266 -1.56933,-0.92847 -3.20404,-1.73614 -4.85742,-2.50195 -1.36513,-0.60323 -2.72006,-1.23809 -4.11914,-1.75976 -1.09231,-0.38355 -2.18159,-0.77475 -3.28516,-1.125 -0.93398,-0.30866 -1.88756,-0.54251 -2.84375,-0.76954 -1.00084,-0.26337 -2.02272,-0.42902 -3.03711,-0.62695 -1.1688,-0.21711 -2.33814,-0.43752 -3.51172,-0.62891 -1.37998,-0.21423 -2.75402,-0.47221 -4.12304,-0.74804 -1.50856,-0.32301 -3.00721,-0.68824 -4.51953,-0.99414 -1.25177,-0.24119 -2.50628,-0.47441 -3.76758,-0.66016 z m 39.04883,0 c 0.15443,0.0473 0.31135,0.0863 0.46485,0.13672 1.17818,0.37512 2.3422,0.78898 3.50781,1.20117 1.49982,0.56922 2.96262,1.23189 4.42578,1.88867 1.8009,0.83541 3.58065,1.71845 5.28906,2.73243 1.62088,0.98206 3.16397,2.07993 4.73242,3.14257 1.63318,1.15016 3.19142,2.3994 4.75586,3.64063 1.63885,1.32582 3.2192,2.71507 4.73047,4.18555 1.29562,1.26263 2.55419,2.5761 3.64649,4.02148 0.97182,1.29713 1.91961,2.618 2.77929,3.99219 0.65082,1.11002 1.24844,2.25198 1.79297,3.41797 0.55225,1.1669 1.13008,2.32275 1.69727,3.48242 0.64203,1.28278 1.29315,2.56097 1.97265,3.82422 0.65772,1.18725 1.35465,2.3514 2.04883,3.51758 0.70733,1.19679 1.42513,2.38775 2.08203,3.61328 0.42515,0.84827 0.79383,1.72333 1.13477,2.60937 v -45.40625 z m -41.23828,19.94531 39.17583,25.82875 25.37691,40.52672 c -0.19545,-0.46824 -0.38605,-0.93831 -0.58789,-1.40429 -0.18663,-0.50855 -0.33975,-1.02482 -0.40235,-1.56446 -0.10595,-0.56342 -0.25223,-1.1193 -0.33203,-1.6875 -0.0545,-0.41225 -0.0826,-0.82933 -0.16016,-1.23828 -0.094,-0.49479 -0.2075,-0.9855 -0.2539,-1.48828 -0.0341,-0.47967 -0.0343,-0.95853 -0.0293,-1.43945 0,-0.39645 -9.1e-4,-0.79302 -0.004,-1.18946 -0.002,-0.33207 -0.008,-0.66414 -0.0176,-0.99609 -0.0105,-0.33343 -0.0178,-0.66725 -0.0645,-0.99805 -0.0709,-0.54572 -0.16869,-1.08937 -0.18359,-1.64062 -0.0145,-0.2795 -0.025,-0.56384 -0.0957,-0.83594 -0.10613,-0.43538 -0.23307,-0.86469 -0.29297,-1.31055 -0.0163,-0.12806 -0.0349,-0.25642 -0.0488,-0.38476 -0.002,-0.0203 -0.0104,-0.17037 -0.0137,-0.22266 -0.0668,-0.13651 -0.28909,-0.60442 -0.25196,-0.61914 -0.12955,-0.45742 -0.36538,-0.884 -0.42968,-1.36133 -0.0971,-0.44025 -0.18286,-0.88326 -0.35547,-1.30273 -0.18808,-0.59384 -0.32388,-1.20297 -0.54102,-1.78711 -0.19456,-0.57449 -0.36517,-1.15763 -0.54687,-1.73633 -0.14178,-0.5123 -0.24669,-1.03218 -0.39258,-1.54297 -0.0659,-0.27589 -0.21081,-0.96443 -0.19141,-1.0664 -0.0896,-0.29094 -0.21992,-0.57071 -0.29492,-0.86719 -0.14408,-0.48326 -0.36271,-0.94078 -0.51367,-1.42188 -0.17658,-0.53493 -0.33426,-1.07571 -0.49609,-1.61523 -0.15245,-0.48148 -0.36477,-0.94266 -0.51954,-1.42383 -0.17168,-0.48864 -0.3365,-0.97992 -0.52929,-1.46094 -0.18816,-0.49575 -0.48941,-0.93843 -0.73828,-1.40429 -0.23412,-0.42279 -0.46419,-0.84984 -0.66211,-1.29102 -0.17504,-0.37284 -0.38223,-0.73294 -0.6211,-1.06836 -0.32681,-0.48769 -0.64371,-0.9804 -0.97851,-1.46289 -0.3295,-0.50334 -0.63513,-1.02464 -0.97266,-1.52148 -0.31074,-0.4223 -0.66838,-0.81665 -1.02539,-1.19922 -0.57609,-0.60324 -1.13072,-1.22837 -1.75586,-1.78321 -0.65154,-0.59326 -1.3837,-1.09091 -2.01172,-1.71093 -0.44798,-0.44401 -0.87942,-0.90434 -1.40039,-1.26758 -0.6509,-0.55842 -1.26856,-1.15778 -1.85547,-1.7832 -0.34144,-0.36697 -0.7436,-0.67455 -1.07617,-1.05079 -0.28815,-0.32223 -0.67902,-0.54027 -1,-0.82617 -0.46525,-0.38446 -0.91388,-0.78823 -1.35937,-1.19531 -0.1521,-0.25527 -0.80543,-0.40725 -0.97266,-0.66992 -0.25081,-0.15634 -0.63662,-0.36802 -0.93359,-0.55664 -0.35104,-0.21491 -0.69591,-0.46713 -0.97266,-0.64063 -0.3469,-0.20521 -0.68358,-0.41818 -1.05664,-0.57617 -0.46001,-0.23958 -0.92688,-0.46404 -1.375,-0.72461 -0.35385,-0.22061 -0.71612,-0.42796 -1.06055,-0.66211 -0.30368,-0.27414 -0.88988,-0.46243 -1.20508,-0.75976 -0.45786,-0.30477 -0.96214,-0.52836 -1.44921,-0.78125 -0.56387,-0.27811 -1.15032,-0.49776 -1.7168,-0.76953 -0.63037,-0.30416 -1.2729,-0.57928 -1.87305,-0.94336 -0.45149,-0.23844 -0.90721,-0.46716 -1.38476,-0.65039 -0.7273,-0.30081 -1.46801,-0.57264 -2.17774,-0.91407 -0.75802,-0.3563 -1.52751,-0.69396 -2.24805,-1.12304 -0.47963,-0.27793 -0.97412,-0.52862 -1.45898,-0.79688 -0.4561,-0.26186 -0.94653,-0.46776 -1.4082,-0.7207 -1.12809,-0.50785 -2.30638,-0.89209 -3.47266,-1.30078 -2.21433,-0.73052 -4.46895,-1.32557 -6.74414,-1.83594 -2.52847,-0.56197 -5.07865,-1.02211 -7.63867,-1.41602 -0.79931,-0.11885 -1.599,-0.22974 -2.39844,-0.34375 z"
         sodipodi:nodetypes="ccccccccccccccccccccccccccccccccccccccccccccccccccccccccccccccssccccccccccccccccccccccccccccccccccccccccccccccccccccccccccccccccccccccccccccccccccccccccccccccccccccccccccccccccc" /></clipPath><mask
       maskUnits="userSpaceOnUse"
       id="mask-powermask-path-effect13271"><path
         id="mask-powermask-path-effect13271_box"
         style="fill:#ffffff;fill-opacity:1"
         d="M 274.77435,214.85447 H 390.7644 v 125.8607 H 274.77435 Z" /><path
         id="path13269"
         style="fill:#000000;fill-opacity:1;fill-rule:nonzero;stroke:none;stroke-width:0.0471184"
         d="m 297.8746,228.04269 c -4.11486,0.0485 -7.52735,3.37942 -7.52735,7.59179 0,3.89245 2.94442,7.17357 6.82227,7.54297 33.98646,3.23044 61.11143,30.35052 64.34375,64.3457 0.36753,3.87496 3.65294,6.82032 7.54492,6.82032 4.49038,0 7.98151,-3.8834 7.55273,-8.35743 -3.93909,-41.20005 -36.71539,-73.96862 -77.90625,-77.9082 -0.27976,-0.0266 -0.55575,-0.0384 -0.83007,-0.0351 z m 0.96093,23.55859 c -4.50459,-0.60442 -8.48437,2.99393 -8.48437,7.54102 0,3.77911 2.77788,6.99933 6.51953,7.50781 21.32603,2.90332 38.25717,19.83562 41.1582,41.16992 0.51168,3.74434 3.73352,6.52344 7.51172,6.52344 4.54572,0 8.14407,-3.98122 7.54102,-8.48828 -3.77363,-28.17344 -26.07636,-50.478 -54.2461,-54.25391 z m -2.53711,26.41797 c -3.32959,0.73984 -5.95117,3.73048 -5.95117,7.4375 0,3.4411 2.31891,6.45539 5.64844,7.32812 7.75273,2.03388 13.86935,8.15346 15.90234,15.91016 0.87318,3.3316 3.88589,5.64844 7.33008,5.64844 4.93917,0 8.6069,-4.66114 7.36328,-9.44336 -3.40009,-13.0985 -13.70562,-23.40933 -26.79882,-26.8125 -1.19621,-0.31046 -2.38428,-0.31498 -3.49415,-0.0684 z m -1.75,24.83594 c -2.98898,0.42591 -5.65625,2.93778 -5.65625,6.46875 v 0.002 c 0,3.57543 2.8994,6.47265 6.47266,6.47265 5.64984,1e-5 8.68303,-6.81721 4.75586,-10.87695 -0.11513,-0.11811 -0.23022,-0.23643 -0.34961,-0.35156 -1.51906,-1.47525 -3.42926,-1.9704 -5.22266,-1.71484 z" /></mask><filter
       id="mask-powermask-path-effect13271_inverse"
       inkscape:label="filtermask-powermask-path-effect13271"
       style="color-interpolation-filters:sRGB"
       height="100"
       width="100"
       x="-50"
       y="-50"><feColorMatrix
         id="mask-powermask-path-effect13271_primitive1"
         values="1"
         type="saturate"
         result="fbSourceGraphic" /><feColorMatrix
         id="mask-powermask-path-effect13271_primitive2"
         values="-1 0 0 0 1 0 -1 0 0 1 0 0 -1 0 1 0 0 0 1 0 "
         in="fbSourceGraphic" /></filter><filter
       id="mask-powermask-path-effect13285_inverse"
       inkscape:label="filtermask-powermask-path-effect13285"
       style="color-interpolation-filters:sRGB"
       height="100"
       width="100"
       x="-50"
       y="-50"><feColorMatrix
         id="mask-powermask-path-effect13285_primitive1"
         values="1"
         type="saturate"
         result="fbSourceGraphic" /><feColorMatrix
         id="mask-powermask-path-effect13285_primitive2"
         values="-1 0 0 0 1 0 -1 0 0 1 0 0 -1 0 1 0 0 0 1 0 "
         in="fbSourceGraphic" /></filter><mask
       maskUnits="userSpaceOnUse"
       id="mask-powermask-path-effect13271-4"><path
         id="mask-powermask-path-effect13271_box-6"
         style="fill:#ffffff;fill-opacity:1"
         d="M 274.77435,214.85447 H 390.7644 v 125.8607 H 274.77435 Z" /><path
         id="path13269-3"
         style="fill:#000000;fill-opacity:1;fill-rule:nonzero;stroke:none;stroke-width:0.0471184"
         d="m 297.8746,228.04269 c -4.11486,0.0485 -7.52735,3.37942 -7.52735,7.59179 0,3.89245 2.94442,7.17357 6.82227,7.54297 33.98646,3.23044 61.11143,30.35052 64.34375,64.3457 0.36753,3.87496 3.65294,6.82032 7.54492,6.82032 4.49038,0 7.98151,-3.8834 7.55273,-8.35743 -3.93909,-41.20005 -36.71539,-73.96862 -77.90625,-77.9082 -0.27976,-0.0266 -0.55575,-0.0384 -0.83007,-0.0351 z m 0.96093,23.55859 c -4.50459,-0.60442 -8.48437,2.99393 -8.48437,7.54102 0,3.77911 2.77788,6.99933 6.51953,7.50781 21.32603,2.90332 38.25717,19.83562 41.1582,41.16992 0.51168,3.74434 3.73352,6.52344 7.51172,6.52344 4.54572,0 8.14407,-3.98122 7.54102,-8.48828 -3.77363,-28.17344 -26.07636,-50.478 -54.2461,-54.25391 z m -2.53711,26.41797 c -3.32959,0.73984 -5.95117,3.73048 -5.95117,7.4375 0,3.4411 2.31891,6.45539 5.64844,7.32812 7.75273,2.03388 13.86935,8.15346 15.90234,15.91016 0.87318,3.3316 3.88589,5.64844 7.33008,5.64844 4.93917,0 8.6069,-4.66114 7.36328,-9.44336 -3.40009,-13.0985 -13.70562,-23.40933 -26.79882,-26.8125 -1.19621,-0.31046 -2.38428,-0.31498 -3.49415,-0.0684 z m -1.75,24.83594 c -2.98898,0.42591 -5.65625,2.93778 -5.65625,6.46875 v 0.002 c 0,3.57543 2.8994,6.47265 6.47266,6.47265 5.64984,1e-5 8.68303,-6.81721 4.75586,-10.87695 -0.11513,-0.11811 -0.23022,-0.23643 -0.34961,-0.35156 -1.51906,-1.47525 -3.42926,-1.9704 -5.22266,-1.71484 z" /></mask><inkscape:path-effect
       effect="powermask"
       id="path-effect13271-4"
       is_visible="true"
       lpeversion="1"
       uri="#mask-powermask-path-effect13271-4"
       invert="false"
       hide_mask="false"
       background="true"
       background_color="#ffffffff" /><clipPath
       clipPathUnits="userSpaceOnUse"
       id="clipath_lpe_path-effect1681-4-8"><path
         id="path4085-3"
         style="display:none;fill:#ff0000;fill-opacity:0.572327;stroke-width:0.62573"
         d="m 178.30331,193.75125 h -17.18372 c 0,-3.60066 3.84671,-6.51957 8.59186,-6.51957 4.74515,0 8.59186,2.91891 8.59186,6.51957 z"
         sodipodi:nodetypes="ccsc" /><path
         id="lpe_path-effect1681-4-8"
         style="fill:#ff0000;fill-opacity:0.572327;stroke-width:0.62573"
         class="powerclip"
         d="M 99.836227,188.75125 H 239.58667 v 34.39801 H 99.836227 Z m 78.467083,5 c 0,-3.60066 -3.84671,-6.51957 -8.59186,-6.51957 -4.74515,0 -8.59186,2.91891 -8.59186,6.51957 z" /></clipPath><inkscape:path-effect
       effect="powerclip"
       id="path-effect1681-4-7"
       is_visible="true"
       lpeversion="1"
       inverse="true"
       flatten="false"
       hide_clip="false"
       message="Usar a regra de preenchimento par ou ímpar na caixa de diálogo &lt;b&gt;preenchimento e contorno&lt;/b&gt; se nenhum resultado nivelar após converter o clipe em caminhos." /><clipPath
       clipPathUnits="userSpaceOnUse"
       id="clipath_lpe_path-effect1677-3-1"><path
         id="path4090-4"
         style="display:none;fill:#ff0000;fill-opacity:0.572327;stroke-width:0.62573"
         d="m 178.30331,193.75125 h -17.18372 c 0,-3.60066 3.84671,-6.51957 8.59186,-6.51957 4.74515,0 8.59186,2.91891 8.59186,6.51957 z"
         sodipodi:nodetypes="ccsc" /><path
         id="lpe_path-effect1677-3-2"
         style="fill:#ff0000;fill-opacity:0.572327;stroke-width:0.62573"
         class="powerclip"
         d="m 142.30788,171.75125 h 54.80713 v 27 h -54.80713 z m 35.99543,22 c 0,-3.60066 -3.84671,-6.51957 -8.59186,-6.51957 -4.74515,0 -8.59186,2.91891 -8.59186,6.51957 z" /></clipPath><inkscape:path-effect
       effect="powerclip"
       id="path-effect1677-3-9"
       is_visible="true"
       lpeversion="1"
       inverse="true"
       flatten="false"
       hide_clip="false"
       message="Usar a regra de preenchimento par ou ímpar na caixa de diálogo &lt;b&gt;preenchimento e contorno&lt;/b&gt; se nenhum resultado nivelar após converter o clipe em caminhos." /><filter
       id="mask-powermask-path-effect13271_inverse-6"
       inkscape:label="filtermask-powermask-path-effect13271"
       style="color-interpolation-filters:sRGB"
       height="100"
       width="100"
       x="-50"
       y="-50"><feColorMatrix
         id="mask-powermask-path-effect13271_primitive1-7"
         values="1"
         type="saturate"
         result="fbSourceGraphic" /><feColorMatrix
         id="mask-powermask-path-effect13271_primitive2-5"
         values="-1 0 0 0 1 0 -1 0 0 1 0 0 -1 0 1 0 0 0 1 0 "
         in="fbSourceGraphic" /></filter><clipPath
       clipPathUnits="userSpaceOnUse"
       id="clipath_lpe_path-effect1681-4-7"><path
         id="path13386"
         style="display:block;fill:#ff0000;fill-opacity:0.572327;stroke-width:0.62573"
         d="m 178.30331,193.75125 h -17.18372 c 0,-3.60066 3.84671,-6.51957 8.59186,-6.51957 4.74515,0 8.59186,2.91891 8.59186,6.51957 z"
         sodipodi:nodetypes="ccsc" /></clipPath><clipPath
       clipPathUnits="userSpaceOnUse"
       id="clipath_lpe_path-effect1677-3-9"><path
         id="path13391"
         style="display:block;fill:#ff0000;fill-opacity:0.572327;stroke-width:0.62573"
         d="m 178.30331,193.75125 h -17.18372 c 0,-3.60066 3.84671,-6.51957 8.59186,-6.51957 4.74515,0 8.59186,2.91891 8.59186,6.51957 z"
         sodipodi:nodetypes="ccsc" /></clipPath></defs><g
     inkscape:label="Camada 1"
     inkscape:groupmode="layer"
     id="layer1"><path
       id="rect177-5"
       style="fill:#7cce00;fill-opacity:1;stroke-width:1.59713"
       d="m 287.81979,215.85447 h 89.89918 l 12.04543,0.0563 v 111.75896 c 0,6.67318 -5.37226,12.04544 -12.04543,12.04544 h -89.89918 c -6.67317,0 -12.04544,-5.37226 -12.04544,-12.04544 V 215.85448 Z"
       sodipodi:nodetypes="cccsssscc"
       mask="url(#mask-powermask-path-effect13271)"
       inkscape:path-effect="#path-effect13271"
       inkscape:original-d="m 287.81979,215.85447 h 89.89918 l 12.04543,0.0563 v 111.75896 c 0,6.67318 -5.37226,12.04544 -12.04543,12.04544 h -89.89918 c -6.67317,0 -12.04544,-5.37226 -12.04544,-12.04544 V 215.85448 Z"
       transform="matrix(3.0613221,0,0,3.0613221,-761.51648,-527.97756)" /><path
       style="fill:#7cce00;fill-opacity:1;stroke-width:1.09306"
       id="rect233-3"
       width="129.75044"
       height="24.398012"
       x="104.83623"
       y="193.75125"
       ry="9.8349466"
       clip-path="url(#clipath_lpe_path-effect1681-4)"
       inkscape:path-effect="#path-effect1681-4"
       d="m 114.67117,193.75125 h 110.08055 c 5.44856,0 9.83495,4.38639 9.83495,9.83495 v 4.72812 c 0,5.44856 -4.38639,9.83494 -9.83495,9.83494 H 114.67117 c -5.44856,0 -9.83494,-4.38638 -9.83494,-9.83494 v -4.72812 c 0,-5.44856 4.38638,-9.83495 9.83494,-9.83495 z"
       sodipodi:type="rect"
       transform="matrix(3.0613221,0,0,3.0613221,-265.10065,-541.70405)" /><path
       id="path387-1"
       style="fill:#7cce00;fill-opacity:1;stroke-width:1.63161"
       d="m 192.11501,193.75125 h -44.80713 c 0,-9.38884 10.03041,-17 22.40356,-17 12.37315,0 22.40357,7.61116 22.40357,17 z"
       sodipodi:nodetypes="ccsc"
       clip-path="url(#clipath_lpe_path-effect1677-3)"
       inkscape:path-effect="#path-effect1677-3"
       inkscape:original-d="m 192.11501,193.75125 h -44.80713 c 0,-9.38884 10.03041,-17 22.40356,-17 12.37315,0 22.40357,7.61116 22.40357,17 z"
       transform="matrix(3.0613221,0,0,3.0613221,-262.34365,-541.09251)" /></g></svg>
