<?xml version="1.0" encoding="UTF-8" standalone="no"?>
<!-- Created with Inkscape (http://www.inkscape.org/) -->

<svg
   width="512"
   height="512"
   viewBox="0 0 512 512"
   version="1.1"
   id="svg5"
   xml:space="preserve"
   inkscape:version="1.2.2 (732a01da63, 2022-12-09)"
   sodipodi:docname="Vetor-Whats.svg"
   xmlns:inkscape="http://www.inkscape.org/namespaces/inkscape"
   xmlns:sodipodi="http://sodipodi.sourceforge.net/DTD/sodipodi-0.dtd"
   xmlns="http://www.w3.org/2000/svg"
   xmlns:svg="http://www.w3.org/2000/svg"><sodipodi:namedview
     id="namedview7"
     pagecolor="#ffffff"
     bordercolor="#999999"
     borderopacity="1"
     inkscape:showpageshadow="0"
     inkscape:pageopacity="0"
     inkscape:pagecheckerboard="0"
     inkscape:deskcolor="#d1d1d1"
     inkscape:document-units="px"
     showgrid="false"
     inkscape:zoom="1.5703125"
     inkscape:cx="256"
     inkscape:cy="308.53731"
     inkscape:window-width="1920"
     inkscape:window-height="991"
     inkscape:window-x="-9"
     inkscape:window-y="-9"
     inkscape:window-maximized="1"
     inkscape:current-layer="layer1" /><defs
     id="defs2"><inkscape:path-effect
       effect="powermask"
       id="path-effect1508"
       is_visible="true"
       lpeversion="1"
       uri="#mask-powermask-path-effect1508"
       invert="false"
       hide_mask="false"
       background="true"
       background_color="#ffffffff" /><mask
       maskUnits="userSpaceOnUse"
       id="mask-powermask-path-effect1508"><path
         id="mask-powermask-path-effect1508_box"
         style="fill:#ffffff;fill-opacity:1"
         d="M -1,-1 H 513 V 513 H -1 Z" /><g
         id="g1506"
         transform="matrix(1.2337662,0,0,1.2337662,65.999862,66.000005)"
         style=""><g
           id="g1474">
	<path
   id="path1470"
   d="m 227.904,176.981 c -0.6,-0.288 -23.054,-11.345 -27.044,-12.781 -1.629,-0.585 -3.374,-1.156 -5.23,-1.156 -3.032,0 -5.579,1.511 -7.563,4.479 -2.243,3.334 -9.033,11.271 -11.131,13.642 -0.274,0.313 -0.648,0.687 -0.872,0.687 -0.201,0 -3.676,-1.431 -4.728,-1.888 -24.087,-10.463 -42.37,-35.624 -44.877,-39.867 -0.358,-0.61 -0.373,-0.887 -0.376,-0.887 0.088,-0.323 0.898,-1.135 1.316,-1.554 1.223,-1.21 2.548,-2.805 3.83,-4.348 0.607,-0.731 1.215,-1.463 1.812,-2.153 1.86,-2.164 2.688,-3.844 3.648,-5.79 l 0.503,-1.011 c 2.344,-4.657 0.342,-8.587 -0.305,-9.856 -0.531,-1.062 -10.012,-23.944 -11.02,-26.348 -2.424,-5.801 -5.627,-8.502 -10.078,-8.502 -0.413,0 0,0 -1.732,0.073 -2.109,0.089 -13.594,1.601 -18.672,4.802 C 90,87.918 80.89,98.74 80.89,117.772 c 0,17.129 10.87,33.302 15.537,39.453 0.116,0.155 0.329,0.47 0.638,0.922 17.873,26.102 40.154,45.446 62.741,54.469 21.745,8.686 32.042,9.69 37.896,9.69 0.001,0 0.001,0 0.001,0 2.46,0 4.429,-0.193 6.166,-0.364 l 1.102,-0.105 c 7.512,-0.666 24.02,-9.22 27.775,-19.655 2.958,-8.219 3.738,-17.199 1.77,-20.458 -1.348,-2.216 -3.671,-3.331 -6.612,-4.743 z" />
	<path
   id="path1472"
   d="M 156.734,0 C 73.318,0 5.454,67.354 5.454,150.143 c 0,26.777 7.166,52.988 20.741,75.928 L 0.212,302.716 c -0.484,1.429 -0.124,3.009 0.933,4.085 C 1.908,307.58 2.943,308 4,308 c 0.405,0 0.813,-0.061 1.211,-0.188 l 79.92,-25.396 c 21.87,11.685 46.588,17.853 71.604,17.853 C 240.143,300.27 308,232.923 308,150.143 308,67.354 240.143,0 156.734,0 Z m 0,268.994 c -23.539,0 -46.338,-6.797 -65.936,-19.657 -0.659,-0.433 -1.424,-0.655 -2.194,-0.655 -0.407,0 -0.815,0.062 -1.212,0.188 L 47.357,261.596 60.281,223.467 C 60.699,222.233 60.49,220.872 59.72,219.82 44.796,199.428 36.907,175.335 36.907,150.143 36.907,84.6 90.661,31.276 156.733,31.276 c 66.064,0 119.812,53.324 119.812,118.867 10e-4,65.535 -53.746,118.851 -119.811,118.851 z" />
</g><g
           id="g1476">
</g><g
           id="g1478">
</g><g
           id="g1480">
</g><g
           id="g1482">
</g><g
           id="g1484">
</g><g
           id="g1486">
</g><g
           id="g1488">
</g><g
           id="g1490">
</g><g
           id="g1492">
</g><g
           id="g1494">
</g><g
           id="g1496">
</g><g
           id="g1498">
</g><g
           id="g1500">
</g><g
           id="g1502">
</g><g
           id="g1504">
</g></g></mask><filter
       id="mask-powermask-path-effect1508_inverse"
       inkscape:label="filtermask-powermask-path-effect1508"
       style="color-interpolation-filters:sRGB"
       height="100"
       width="100"
       x="-50"
       y="-50"><feColorMatrix
         id="mask-powermask-path-effect1508_primitive1"
         values="1"
         type="saturate"
         result="fbSourceGraphic" /><feColorMatrix
         id="mask-powermask-path-effect1508_primitive2"
         values="-1 0 0 0 1 0 -1 0 0 1 0 0 -1 0 1 0 0 0 1 0 "
         in="fbSourceGraphic" /></filter><inkscape:path-effect
       effect="powerclip"
       id="path-effect3122"
       is_visible="true"
       lpeversion="1"
       inverse="true"
       flatten="false"
       hide_clip="false"
       message="Usar a regra de preenchimento par ou ímpar na caixa de diálogo &lt;b&gt;preenchimento e contorno&lt;/b&gt; se nenhum resultado nivelar após converter o clipe em caminhos." /><clipPath
       clipPathUnits="userSpaceOnUse"
       id="clipPath3098"><g
         id="g3108"><path
           id="path3100"
           style="fill:#00ff00;fill-opacity:0.330189;stroke-width:1.78381"
           d="m 393.64409,225.8363 30.3667,-0.125 -3.89113,31.12677 -26.47557,0.0684 z"
           sodipodi:nodetypes="ccccc" /><rect
           style="fill:#00ff00;fill-opacity:0.330189;stroke-width:7.93526"
           id="rect3102"
           width="32.506001"
           height="134.5237"
           x="361.13809"
           y="203.233" /><path
           id="path3104"
           style="fill:#00ff00;fill-opacity:0.330189;stroke-width:0.958323"
           d="m 408.46543,191.13156 c 0,0 -8.68002,-0.14124 -11.84458,3.76154 -3.07304,3.7899 -2.97675,8.3399 -2.97675,8.3399 h -16.83751 -15.6685 c 0,0 -0.79303,-13.7298 6.5976,-24.92689 7.52074,-11.39421 17.24453,-19.49944 57.40774,-15.15373 0.40224,0.0435 0.0705,28.03549 0.0705,28.03549 z"
           sodipodi:nodetypes="sscccssss" /><path
           id="path3106"
           style="fill:#00ff00;fill-opacity:0.330189;stroke-width:0.979017"
           d="m 334.14446,225.74538 h 26.99363 v 31.16109 l -26.99363,-0.0341 z"
           sodipodi:nodetypes="ccccc" /></g></clipPath><clipPath
       clipPathUnits="userSpaceOnUse"
       id="clipPath3110"><g
         id="g3120"
         style="display:block"><path
           id="path3112"
           style="fill:#00ff00;fill-opacity:0.330189;stroke-width:1.78381"
           d="m 393.64409,225.8363 30.3667,-0.125 -3.89113,31.12677 -26.47557,0.0684 z"
           sodipodi:nodetypes="ccccc" /><rect
           style="fill:#00ff00;fill-opacity:0.330189;stroke-width:7.93526"
           id="rect3114"
           width="32.506001"
           height="134.5237"
           x="361.13809"
           y="203.233" /><path
           id="path3116"
           style="fill:#00ff00;fill-opacity:0.330189;stroke-width:0.958323"
           d="m 408.46543,191.13156 c 0,0 -8.68002,-0.14124 -11.84458,3.76154 -3.07304,3.7899 -2.97675,8.3399 -2.97675,8.3399 h -16.83751 -15.6685 c 0,0 -0.79303,-13.7298 6.5976,-24.92689 7.52074,-11.39421 17.24453,-19.49944 57.40774,-15.15373 0.40224,0.0435 0.0705,28.03549 0.0705,28.03549 z"
           sodipodi:nodetypes="sscccssss" /><path
           id="path3118"
           style="fill:#00ff00;fill-opacity:0.330189;stroke-width:0.979017"
           d="m 334.14446,225.74538 h 26.99363 v 31.16109 l -26.99363,-0.0341 z"
           sodipodi:nodetypes="ccccc" /></g></clipPath><inkscape:path-effect
       effect="powerclip"
       id="path-effect428"
       is_visible="true"
       lpeversion="1"
       inverse="true"
       flatten="false"
       hide_clip="false"
       message="Usar a regra de preenchimento par ou ímpar na caixa de diálogo &lt;b&gt;preenchimento e contorno&lt;/b&gt; se nenhum resultado nivelar após converter o clipe em caminhos." /><inkscape:path-effect
       effect="powerclip"
       id="path-effect352"
       is_visible="true"
       lpeversion="1"
       inverse="true"
       flatten="false"
       hide_clip="false"
       message="Usar a regra de preenchimento par ou ímpar na caixa de diálogo &lt;b&gt;preenchimento e contorno&lt;/b&gt; se nenhum resultado nivelar após converter o clipe em caminhos." /><clipPath
       clipPathUnits="userSpaceOnUse"
       id="clipPath348"><rect
         style="display:block;fill:#ffffff;fill-opacity:1;stroke-width:0.824952"
         id="rect350"
         width="140.24178"
         height="140.24178"
         x="14.866627"
         y="14.832479"
         ry="32.507172" /></clipPath><clipPath
       clipPathUnits="userSpaceOnUse"
       id="clipPath424"><circle
         style="display:none;fill:#ffffff;fill-opacity:1;stroke-width:1.12815"
         id="circle426"
         cx="85.099953"
         cy="84.953239"
         r="28.8265" /></clipPath></defs><g
     inkscape:label="Camada 1"
     inkscape:groupmode="layer"
     id="layer1"><rect
       style="fill:#7cce00;fill-opacity:1"
       id="rect277"
       width="512"
       height="512"
       x="0"
       y="0"
       ry="143.90488"
       mask="url(#mask-powermask-path-effect1508)"
       inkscape:path-effect="#path-effect1508"
       d="M 143.90488,0 H 368.09512 C 447.81842,0 512,64.181575 512,143.90488 V 368.09512 C 512,447.81842 447.81842,512 368.09512,512 H 143.90488 C 64.181575,512 0,447.81842 0,368.09512 V 143.90488 C 0,64.181575 64.181575,0 143.90488,0 Z" /></g></svg>
