<?xml version="1.0" encoding="UTF-8" standalone="no"?>
<!-- Created with Inkscape (http://www.inkscape.org/) -->

<svg
   width="512"
   height="512"
   viewBox="0 0 512 512"
   version="1.1"
   id="svg5"
   xml:space="preserve"
   inkscape:version="1.2.2 (732a01da63, 2022-12-09)"
   sodipodi:docname="Vetor-Twitter.svg"
   xmlns:inkscape="http://www.inkscape.org/namespaces/inkscape"
   xmlns:sodipodi="http://sodipodi.sourceforge.net/DTD/sodipodi-0.dtd"
   xmlns="http://www.w3.org/2000/svg"
   xmlns:svg="http://www.w3.org/2000/svg"><sodipodi:namedview
     id="namedview7"
     pagecolor="#ffffff"
     bordercolor="#999999"
     borderopacity="1"
     inkscape:showpageshadow="0"
     inkscape:pageopacity="0"
     inkscape:pagecheckerboard="0"
     inkscape:deskcolor="#d1d1d1"
     inkscape:document-units="px"
     showgrid="false"
     inkscape:zoom="1.1103786"
     inkscape:cx="253.06683"
     inkscape:cy="328.26641"
     inkscape:window-width="1920"
     inkscape:window-height="991"
     inkscape:window-x="-9"
     inkscape:window-y="-9"
     inkscape:window-maximized="1"
     inkscape:current-layer="layer1" /><defs
     id="defs2"><inkscape:path-effect
       effect="powerclip"
       id="path-effect1585"
       is_visible="true"
       lpeversion="1"
       inverse="true"
       flatten="false"
       hide_clip="false"
       message="Usar a regra de preenchimento par ou ímpar na caixa de diálogo &lt;b&gt;preenchimento e contorno&lt;/b&gt; se nenhum resultado nivelar após converter o clipe em caminhos." /><clipPath
       clipPathUnits="userSpaceOnUse"
       id="clipPath1581"><path
         id="path1583"
         style="display:none;fill:#0000ff;fill-opacity:0.323899;stroke-width:1.91773"
         d="m 381.19479,247.40301 c -6.68657,26.43324 -19.38268,50.13732 -36.47649,69.05434 -4.4903,4.96923 -7.79098,9.09577 -11.61814,13.07088 -6.45491,6.70444 -12.93908,12.39077 -18.45563,16.68339 -11.4854,8.9372 -20.02597,13.10925 -34.01677,20.56854 -7.30295,3.89362 -31.58721,11.88241 -51.37995,14.46805 -20.51231,2.67964 -30.66239,2.63434 -48.04343,1.47819 -11.33862,-0.75423 -36.57925,-6.71007 -52.37067,-13.23845 -17.36581,-7.17926 -30.406509,-15.83084 -30.406509,-15.83084 21.595969,1.52938 34.601479,1.06108 55.694239,-5.43782 23.26439,-7.16801 42.11683,-21.98567 42.11683,-21.98567 -8.22363,0.0338 -17.67169,-2.1555 -25.35603,-5.69174 -8.70086,-4.00402 -15.36505,-9.62257 -19.55797,-13.63201 -14.7023,-14.05895 -16.86059,-27.01135 -16.86059,-27.01135 2.62655,0.79782 9.29045,1.47122 15.51986,1.01618 7.36426,-0.53794 14.68645,-2.21492 14.68645,-2.21492 -11.92333,0.49048 -27.38107,-12.40818 -29.04666,-13.67422 -8.52071,-6.47672 -15.51452,-16.45927 -20.00346,-28.0231 -2.34782,-6.04814 -4.51812,-14.49249 -3.79535,-23.85753 0,0 8.79679,4.50259 11.47651,5.16349 10.13823,2.50041 18.1637,2.79864 18.1637,2.79864 -11.1017,-5.22836 -18.8851,-18.92017 -22.77218,-25.78953 -4.37086,-7.72431 -5.94938,-19.02345 -6.78641,-28.60256 -1.03392,-11.83229 4.24978,-24.09332 8.83952,-34.00709 0,0 12.83898,14.15133 28.28717,28.03872 11.10667,9.98452 34.57123,23.16346 52.6915,30.09562 8.76857,3.35454 30.07876,10.14309 55.39248,10.71591 0,0 -5.11858,-15.03656 2.23759,-36.60156 5.10547,-14.96693 13.39236,-23.27447 21.2221,-30.1678 1.27004,-1.11815 7.8558,-5.51545 11.94336,-7.27217 7.5568,-3.2477 13.70056,-5.40713 14.05765,-5.40713 5.41062,-0.84152 9.94137,-1.9519 14.94822,-1.66366 12.16353,0.70024 19.72676,1.93761 29.01472,6.34881 8.1682,3.87938 15.08543,9.34292 20.22611,14.72151 0,0 6.55441,-2.22913 14.62612,-4.58851 9.66939,-2.82638 21.78292,-7.81493 27.24536,-11.61485 0,0 -2.72159,8.00991 -4.34579,10.80052 -4.81252,8.26858 -13.45722,19.84682 -24.24998,25.70023 0,0 27.62819,-4.56094 37.64059,-10.55561 0,0 -3.26693,6.52675 -11.21541,15.25662 -3.15681,3.46714 -13.20643,13.13387 -21.96961,19.48948 0,0 0.61435,13.02526 -0.82448,26.73599 -1.58031,15.0588 -5.27608,31.07586 -6.47857,34.66301 z"
         sodipodi:nodetypes="cssssssssssssssssssssssssssssscsssssssssssc" /><path
         id="lpe_path-effect1585"
         style="fill:#0000ff;fill-opacity:0.323899;stroke-width:1.91773"
         class="powerclip"
         d="M 3.0596924,-5 H 517 V 508.94031 H 3.0596924 Z M 381.19479,247.40301 c 1.20249,-3.58715 4.89826,-19.60421 6.47857,-34.66301 1.43883,-13.71073 0.82448,-26.73599 0.82448,-26.73599 8.76318,-6.35561 18.8128,-16.02234 21.96961,-19.48948 7.94848,-8.72987 11.21541,-15.25662 11.21541,-15.25662 -10.0124,5.99467 -37.64059,10.55561 -37.64059,10.55561 10.79276,-5.85341 19.43746,-17.43165 24.24998,-25.70023 1.6242,-2.79061 4.34579,-10.80052 4.34579,-10.80052 -5.46244,3.79992 -17.57597,8.78847 -27.24536,11.61485 -8.07171,2.35938 -14.62612,4.58851 -14.62612,4.58851 -5.14068,-5.37859 -12.05791,-10.84213 -20.22611,-14.72151 -9.28796,-4.4112 -16.85119,-5.64857 -29.01472,-6.34881 -5.00685,-0.28824 -9.5376,0.82214 -14.94822,1.66366 -0.35709,0 -6.50085,2.15943 -14.05765,5.40713 -4.08756,1.75672 -10.67332,6.15402 -11.94336,7.27217 -7.82974,6.89333 -16.11663,15.20087 -21.2221,30.1678 -7.35617,21.565 -2.23759,36.60156 -2.23759,36.60156 -25.31372,-0.57282 -46.62391,-7.36137 -55.39248,-10.71591 -18.12027,-6.93216 -41.58483,-20.1111 -52.6915,-30.09562 -15.44819,-13.88739 -28.28717,-28.03872 -28.28717,-28.03872 -4.58974,9.91377 -9.87344,22.1748 -8.83952,34.00709 0.83703,9.57911 2.41555,20.87825 6.78641,28.60256 3.88708,6.86936 11.67048,20.56117 22.77218,25.78953 0,0 -8.02547,-0.29823 -18.1637,-2.79864 -2.67972,-0.6609 -11.47651,-5.16349 -11.47651,-5.16349 -0.72277,9.36504 1.44753,17.80939 3.79535,23.85753 4.48894,11.56383 11.48275,21.54638 20.00346,28.0231 1.66559,1.26604 17.12333,14.1647 29.04666,13.67422 0,0 -7.32219,1.67698 -14.68645,2.21492 -6.22941,0.45504 -12.89331,-0.21836 -15.51986,-1.01618 0,0 2.15829,12.9524 16.86059,27.01135 4.19292,4.00944 10.85711,9.62799 19.55797,13.63201 7.68434,3.53624 17.1324,5.72554 25.35603,5.69174 0,0 -18.85244,14.81766 -42.11683,21.98567 -21.09276,6.4989 -34.09827,6.9672 -55.694239,5.43782 0,0 13.040699,8.65158 30.406509,15.83084 15.79142,6.52838 41.03205,12.48422 52.37067,13.23845 17.38104,1.15615 27.53112,1.20145 48.04343,-1.47819 19.79274,-2.58564 44.077,-10.57443 51.37995,-14.46805 13.9908,-7.45929 22.53137,-11.63134 34.01677,-20.56854 5.51655,-4.29262 12.00072,-9.97895 18.45563,-16.68339 3.82716,-3.97511 7.12784,-8.10165 11.61814,-13.07088 17.09381,-18.91702 29.78992,-42.6211 36.47649,-69.05434 z" /></clipPath><inkscape:path-effect
       effect="powerclip"
       id="path-effect428"
       is_visible="true"
       lpeversion="1"
       inverse="true"
       flatten="false"
       hide_clip="false"
       message="Usar a regra de preenchimento par ou ímpar na caixa de diálogo &lt;b&gt;preenchimento e contorno&lt;/b&gt; se nenhum resultado nivelar após converter o clipe em caminhos." /><inkscape:path-effect
       effect="powerclip"
       id="path-effect352"
       is_visible="true"
       lpeversion="1"
       inverse="true"
       flatten="false"
       hide_clip="false"
       message="Usar a regra de preenchimento par ou ímpar na caixa de diálogo &lt;b&gt;preenchimento e contorno&lt;/b&gt; se nenhum resultado nivelar após converter o clipe em caminhos." /><clipPath
       clipPathUnits="userSpaceOnUse"
       id="clipPath348"><rect
         style="display:block;fill:#ffffff;fill-opacity:1;stroke-width:0.824952"
         id="rect350"
         width="140.24178"
         height="140.24178"
         x="14.866627"
         y="14.832479"
         ry="32.507172" /></clipPath><clipPath
       clipPathUnits="userSpaceOnUse"
       id="clipPath424"><circle
         style="display:none;fill:#ffffff;fill-opacity:1;stroke-width:1.12815"
         id="circle426"
         cx="85.099953"
         cy="84.953239"
         r="28.8265" /></clipPath></defs><g
     inkscape:label="Camada 1"
     inkscape:groupmode="layer"
     id="layer1"><path
       style="fill:#7cce00;fill-opacity:1"
       id="rect1579"
       width="503.94031"
       height="503.94031"
       x="8.0596924"
       y="0"
       ry="141.63959"
       clip-path="url(#clipPath1581)"
       inkscape:path-effect="#path-effect1585"
       d="M 149.69928,0 H 370.36041 C 448.82874,0 512,63.171256 512,141.63959 v 220.66113 c 0,78.46833 -63.17126,141.63959 -141.63959,141.63959 H 149.69928 C 71.230948,503.94031 8.0596924,440.76905 8.0596924,362.30072 V 141.63959 C 8.0596924,63.171256 71.230948,0 149.69928,0 Z"
       sodipodi:type="rect"
       transform="matrix(1.0159933,0,0,1.0159933,-8.1885815,1.1930499e-5)" /></g></svg>
