<?xml version="1.0" encoding="UTF-8" standalone="no"?>
<!-- Created with Inkscape (http://www.inkscape.org/) -->

<svg
   width="512"
   height="512"
   viewBox="0 0 512 512"
   version="1.1"
   id="svg5"
   xml:space="preserve"
   inkscape:version="1.2.2 (732a01da63, 2022-12-09)"
   sodipodi:docname="Vetor-Insta.svg"
   xmlns:inkscape="http://www.inkscape.org/namespaces/inkscape"
   xmlns:sodipodi="http://sodipodi.sourceforge.net/DTD/sodipodi-0.dtd"
   xmlns="http://www.w3.org/2000/svg"
   xmlns:svg="http://www.w3.org/2000/svg"><sodipodi:namedview
     id="namedview7"
     pagecolor="#ffffff"
     bordercolor="#999999"
     borderopacity="1"
     inkscape:showpageshadow="0"
     inkscape:pageopacity="0"
     inkscape:pagecheckerboard="0"
     inkscape:deskcolor="#d1d1d1"
     inkscape:document-units="px"
     showgrid="false"
     inkscape:zoom="1.1103786"
     inkscape:cx="-34.672858"
     inkscape:cy="229.2011"
     inkscape:window-width="1920"
     inkscape:window-height="991"
     inkscape:window-x="-9"
     inkscape:window-y="-9"
     inkscape:window-maximized="1"
     inkscape:current-layer="g8323" /><defs
     id="defs2"><inkscape:path-effect
       effect="powerclip"
       id="path-effect428"
       is_visible="true"
       lpeversion="1"
       inverse="true"
       flatten="false"
       hide_clip="false"
       message="Usar a regra de preenchimento par ou ímpar na caixa de diálogo &lt;b&gt;preenchimento e contorno&lt;/b&gt; se nenhum resultado nivelar após converter o clipe em caminhos." /><inkscape:path-effect
       effect="powerclip"
       id="path-effect352"
       is_visible="true"
       lpeversion="1"
       inverse="true"
       flatten="false"
       hide_clip="false"
       message="Usar a regra de preenchimento par ou ímpar na caixa de diálogo &lt;b&gt;preenchimento e contorno&lt;/b&gt; se nenhum resultado nivelar após converter o clipe em caminhos." /><clipPath
       clipPathUnits="userSpaceOnUse"
       id="clipPath348"><rect
         style="display:none;fill:#ffffff;fill-opacity:1;stroke-width:0.824952"
         id="rect350"
         width="140.24178"
         height="140.24178"
         x="14.866627"
         y="14.832479"
         ry="32.507172"
         d="m 47.373798,14.832479 h 75.227432 c 18.00897,0 32.50717,14.498198 32.50717,32.507171 v 75.22743 c 0,18.00898 -14.4982,32.50717 -32.50717,32.50717 H 47.373798 c -18.008973,0 -32.507171,-14.49819 -32.507171,-32.50717 V 47.33965 c 0,-18.008973 14.498198,-32.507171 32.507171,-32.507171 z" /><path
         id="lpe_path-effect352"
         style="display:inline;fill:#ffffff;fill-opacity:1;stroke-width:0.824952"
         class="powerclip"
         d="M -5,-5 H 175 V 175 H -5 Z m 52.373798,19.832479 c -18.008973,0 -32.507171,14.498198 -32.507171,32.507171 v 75.22743 c 0,18.00898 14.498198,32.50717 32.507171,32.50717 h 75.227432 c 18.00897,0 32.50717,-14.49819 32.50717,-32.50717 V 47.33965 c 0,-18.008973 -14.4982,-32.507171 -32.50717,-32.507171 z" /></clipPath><clipPath
       clipPathUnits="userSpaceOnUse"
       id="clipPath424"><circle
         style="display:none;fill:#ffffff;fill-opacity:1;stroke-width:1.12815"
         id="circle426"
         cx="85.099953"
         cy="84.953239"
         r="28.8265"
         d="M 113.92645,84.953239 A 28.8265,28.8265 0 0 1 85.099953,113.77974 28.8265,28.8265 0 0 1 56.273453,84.953239 28.8265,28.8265 0 0 1 85.099953,56.12674 28.8265,28.8265 0 0 1 113.92645,84.953239 Z" /><path
         id="lpe_path-effect428"
         style="fill:#ffffff;fill-opacity:1;stroke-width:1.12815"
         class="powerclip"
         d="M 36.145885,36.145874 H 133.84089 V 133.84119 H 36.145885 Z M 113.92645,84.953239 A 28.8265,28.8265 0 0 0 85.099953,56.12674 a 28.8265,28.8265 0 0 0 -28.8265,28.826499 28.8265,28.8265 0 0 0 28.8265,28.826501 28.8265,28.8265 0 0 0 28.826497,-28.826501 z" /></clipPath></defs><g
     inkscape:label="Camada 1"
     inkscape:groupmode="layer"
     id="layer1"
     style="display:inline"><g
       id="g3721"
       style="display:inline"
       transform="scale(3.0117647)"><g
         id="g8323"><rect
           style="fill:#7cce00;fill-opacity:1"
           id="rect796"
           width="170"
           height="170"
           x="0"
           y="0"
           ry="47.124378"
           clip-path="url(#clipPath348)"
           inkscape:path-effect="#path-effect352"
           d="M 47.124378,0 H 122.87562 C 148.98253,0 170,21.017473 170,47.124378 V 122.87562 C 170,148.98253 148.98253,170 122.87562,170 H 47.124378 C 21.017473,170 0,148.98253 0,122.87562 V 47.124378 C 0,21.017473 21.017473,0 47.124378,0 Z" /><ellipse
           style="fill:#7cce00;fill-opacity:1;stroke-width:1.23529"
           id="path1629"
           cx="130.70366"
           cy="39.485516"
           rx="10.987893"
           ry="10.988" /><path
           style="fill:#7cce00;fill-opacity:1;stroke-width:1.2835"
           id="path1631"
           clip-path="url(#clipPath424)"
           inkscape:path-effect="#path-effect428"
           sodipodi:type="arc"
           sodipodi:cx="84.993385"
           sodipodi:cy="84.99353"
           sodipodi:rx="43.8475"
           sodipodi:ry="43.847656"
           d="M 128.84089,84.99353 A 43.8475,43.847656 0 0 1 84.993385,128.84119 43.8475,43.847656 0 0 1 41.145885,84.99353 43.8475,43.847656 0 0 1 84.993385,41.145874 43.8475,43.847656 0 0 1 128.84089,84.99353 Z" /></g></g></g></svg>
